<?xml version="1.0" encoding="UTF-8"?>
<svg version="1.1" xmlns="http://www.w3.org/2000/svg" width="100%" height="100%" viewBox="0 0 1024 1024" preserveAspectRatio="xMidYMid meet">
<path d="M0 0 C1.43918628 -0.00307895 1.43918628 -0.00307895 2.90744704 -0.0062201 C6.12328631 -0.01187568 9.33908256 -0.01043463 12.55492592 -0.00901413 C14.8836394 -0.0115986 17.21235243 -0.01461199 19.54106486 -0.01801753 C25.27055864 -0.02523596 31.00004126 -0.0277897 36.72953925 -0.02834659 C43.59436921 -0.02926197 50.4591906 -0.03593474 57.32401686 -0.04269341 C73.91535046 -0.05873859 90.50668312 -0.06465521 107.09802308 -0.06944216 C114.95098863 -0.0717798 122.80395344 -0.07538266 130.65691842 -0.07913754 C157.55214661 -0.09197234 184.4473744 -0.1026911 211.34260559 -0.10614014 C213.03034184 -0.10636177 214.71807808 -0.10658355 216.40581433 -0.10680549 C218.09756937 -0.10702613 219.78932442 -0.10724661 221.48107946 -0.10746694 C224.87488643 -0.10790948 228.26869341 -0.1083566 231.66250038 -0.10880661 C232.9246967 -0.1089707 232.9246967 -0.1089707 234.21239193 -0.1091381 C261.4851479 -0.11276718 288.75787727 -0.12868198 316.03062306 -0.15199697 C344.88227763 -0.17661653 373.733917 -0.19031398 402.58558238 -0.19150805 C405.75544397 -0.1916795 408.92530557 -0.19189493 412.09516716 -0.19214249 C413.26588349 -0.19222614 413.26588349 -0.19222614 414.46025066 -0.19231148 C426.99785758 -0.19346014 439.53543711 -0.20446641 452.07303479 -0.21902954 C464.68591547 -0.23342626 477.2987612 -0.23661366 489.91164784 -0.22858956 C496.73911758 -0.22453757 503.56649011 -0.22558599 510.39394951 -0.23964691 C516.65275604 -0.25241849 522.91140212 -0.25115962 529.17020853 -0.2390562 C531.42599632 -0.23710484 533.68179561 -0.24015145 535.93756728 -0.24890056 C572.70778424 -0.38240574 607.11225498 9.52650901 635.22646523 34.13142776 C635.96727333 34.771689 635.96727333 34.771689 636.72304726 35.4248848 C644.01558538 41.75465051 650.39100905 48.39605563 656.22646523 56.13142776 C656.82974648 56.93064651 657.43302773 57.72986526 658.05459023 58.55330276 C674.59490445 81.35211427 685.4144043 109.4554036 685.35789299 137.81594276 C685.36097194 139.2589128 685.36097194 139.2589128 685.36411309 140.73103374 C685.36977723 143.96146564 685.36832655 147.19185482 685.36690712 150.4222908 C685.3694911 152.75910352 685.37250435 155.09591579 685.37591052 157.43272746 C685.38313378 163.18610305 685.38568297 168.93946754 685.38623958 174.69284734 C685.38715442 181.58540726 685.39382559 188.47795863 685.4005864 195.37051486 C685.41663739 212.02980989 685.42254891 228.68910399 685.42733515 245.34840535 C685.42967226 253.23269576 685.43327507 261.11698543 685.43703053 269.00127527 C685.44986599 296.00069991 685.46058458 323.00012415 685.46403313 349.99955177 C685.46425476 351.69407782 685.46447654 353.38860387 685.46469848 355.08312992 C685.46491912 356.78170664 685.4651396 358.48028335 685.46535993 360.17886007 C685.46580247 363.58638914 685.46624959 366.99391822 685.4666996 370.4014473 C685.46680899 371.24631484 685.46691838 372.09118238 685.46703109 372.96165197 C685.47066022 400.34508434 685.48657486 427.72849021 685.50988996 455.11191244 C685.53450619 484.07657548 685.54820682 513.04122337 685.54940104 542.00589716 C685.54957249 545.18783292 685.54978792 548.36976866 685.55003548 551.55170441 C685.55009125 552.33516219 685.55014701 553.11861997 685.55020447 553.92581889 C685.55135344 566.51481903 685.56236238 579.1037919 685.57692253 591.69278284 C685.59131501 604.35617757 685.59450903 617.01953748 685.58648255 629.68293814 C685.58242891 636.53862658 685.58308843 643.39423169 685.5975399 650.24990845 C685.61030213 656.53337467 685.60906074 662.81668101 685.59694919 669.10014708 C685.59499622 671.36604111 685.59805199 673.63194656 685.60679355 675.89782457 C685.71560794 706.02535671 679.27786477 736.30602294 661.22646523 761.13142776 C660.47751991 762.16267776 659.7285746 763.19392776 658.95693398 764.25642776 C650.30367574 775.92275052 640.86334773 786.34404582 629.22646523 795.13142776 C628.06244179 796.0189473 628.06244179 796.0189473 626.87490273 796.92439651 C604.0580417 813.5982565 575.96275194 824.31948692 547.54195023 824.26285553 C546.09898019 824.26593448 546.09898019 824.26593448 544.62685925 824.26907563 C541.39642735 824.27473977 538.16603817 824.27328909 534.93560219 824.27186966 C532.59878947 824.27445364 530.2619772 824.27746689 527.92516553 824.28087306 C522.17178994 824.28809632 516.41842545 824.29064551 510.66504565 824.29120212 C503.77248573 824.29211696 496.87993436 824.29878813 489.98737813 824.30554894 C473.3280831 824.32159993 456.668789 824.32751145 440.00948764 824.33229769 C432.12519723 824.3346348 424.24090756 824.33823761 416.35661772 824.34199307 C389.35719308 824.35482853 362.35776884 824.36554712 335.35834122 824.36899567 C333.66381517 824.3692173 331.96928912 824.36943908 330.27476307 824.36966102 C328.57618635 824.36988166 326.87760964 824.37010214 325.17903292 824.37032247 C321.77150385 824.37076501 318.36397477 824.37121213 314.95644569 824.37166214 C314.11157815 824.37177153 313.26671061 824.37188092 312.39624102 824.37199363 C285.01280865 824.37562276 257.62940278 824.3915374 230.24598055 824.4148525 C201.28131752 824.43946873 172.31666962 824.45316936 143.35199583 824.45436358 C140.17006007 824.45453503 136.98812433 824.45475046 133.80618858 824.45499802 C132.63100191 824.45508167 132.63100191 824.45508167 131.4320741 824.45516701 C118.84307396 824.45631598 106.25410109 824.46732492 93.66511015 824.48188507 C81.00171542 824.49627755 68.33835551 824.49947157 55.67495485 824.49144509 C48.81926641 824.48739145 41.9636613 824.48805097 35.10798454 824.50250244 C28.82451832 824.51526467 22.54121198 824.51402328 16.25774591 824.50191173 C13.99185188 824.49995876 11.72594643 824.50301453 9.46006842 824.51175609 C-3.29462574 824.5578234 -15.30726868 823.92389358 -27.77353477 821.13142776 C-28.63156429 820.93945352 -29.4895938 820.74747927 -30.37362421 820.54968762 C-51.92120134 815.29103903 -72.06019449 804.65875169 -88.77353477 790.13142776 C-89.67587852 789.36185745 -90.57822227 788.59228714 -91.50790977 787.79939651 C-98.01343815 782.09358088 -103.52474752 776.00045065 -108.77353477 769.13142776 C-109.43998009 768.28064651 -110.1064254 767.42986526 -110.79306602 766.55330276 C-128.08058036 743.77606494 -138.96221777 715.18079398 -138.90496254 686.44691277 C-138.90701517 685.48493274 -138.90906781 684.52295272 -138.91118264 683.53182179 C-138.91684678 680.30138989 -138.9153961 677.07100071 -138.91397667 673.84056473 C-138.91656065 671.50375201 -138.9195739 669.16693974 -138.92298007 666.83012807 C-138.93020333 661.07675248 -138.93275252 655.32338799 -138.93330913 649.57000819 C-138.93422397 642.67744827 -138.94089514 635.7848969 -138.94765595 628.89234067 C-138.96370694 612.23304564 -138.96961846 595.57375154 -138.9744047 578.91445018 C-138.97674181 571.03015977 -138.98034462 563.1458701 -138.98410008 555.26158026 C-138.99693554 528.26215562 -139.00765413 501.26273138 -139.01110268 474.26330376 C-139.01132431 472.56877771 -139.01154609 470.87425166 -139.01176803 469.17972561 C-139.01198867 467.48114889 -139.01220915 465.78257218 -139.01242948 464.08399546 C-139.01287202 460.67646638 -139.01331914 457.26893731 -139.01376915 453.86140823 C-139.01387854 453.01654069 -139.01398793 452.17167315 -139.01410064 451.30120356 C-139.01772977 423.91777119 -139.03364441 396.53436532 -139.05695951 369.15094309 C-139.08157574 340.18628005 -139.09527637 311.22163216 -139.09647059 282.25695837 C-139.09664204 279.07502261 -139.09685747 275.89308687 -139.09710503 272.71115112 C-139.09716079 271.92769334 -139.09721656 271.14423556 -139.09727402 270.33703664 C-139.09842299 257.7480365 -139.10943193 245.15906363 -139.12399208 232.57007269 C-139.13838456 219.90667796 -139.14157858 207.24331805 -139.1335521 194.57991739 C-139.12949846 187.72422895 -139.13015798 180.86862384 -139.14460945 174.01294708 C-139.15737168 167.72948086 -139.15613029 161.44617452 -139.14401874 155.16270845 C-139.14206577 152.89681442 -139.14512154 150.63090897 -139.1538631 148.36503096 C-139.26306898 118.1291071 -132.73920608 88.10331948 -114.77353477 63.13142776 C-114.10966759 62.18525589 -113.4458004 61.23908401 -112.76181602 60.26424026 C-104.17225262 48.38997847 -94.4702064 38.00305582 -82.77353477 29.13142776 C-82.17307335 28.66446487 -81.57261192 28.19750198 -80.9539547 27.7163887 C-58.12930769 10.18000506 -28.78250485 -0.05775022 0 0 Z " fill="#252525" transform="translate(238.77353477478027,99.86857223510742)"/>
<path d="M0 0 C15.78208998 14.63897515 28.18814024 36.53529384 29.47998047 58.34790039 C29.55637548 61.8381037 29.56209217 65.32085308 29.5390625 68.81176758 C29.54679688 69.99577148 29.55453125 71.17977539 29.5625 72.3996582 C29.54098097 82.00252713 29.54098097 82.00252713 28.2109375 86.14379883 C27.15842124 89.54663742 27.1909817 90.77047001 28.2890625 94.12426758 C29.90985892 96.14092904 31.48964888 97.89503873 33.31529236 99.70553589 C33.84403648 100.24545894 34.37278061 100.78538199 34.91754729 101.34166634 C36.69198122 103.14844757 38.48043922 104.94065118 40.26928711 106.7331543 C41.54461779 108.02536465 42.81914474 109.31836865 44.09292603 110.61210632 C47.55645407 114.12381826 51.03314426 117.62220334 54.51385188 121.11687994 C56.68795976 123.30049352 58.85957385 125.48655685 61.03039742 127.67343521 C68.60394988 135.30197216 76.18943429 142.9184434 83.78442383 150.52563477 C90.8642613 157.61758294 97.91534947 164.73726943 104.95406908 171.87000644 C110.99843981 177.99228091 117.06377074 184.09325811 123.14553076 190.17839062 C126.7776259 193.81337606 130.40032628 197.45667291 134.0016613 201.12215805 C137.38976753 204.56935428 140.8031501 207.98933717 144.23768997 211.39025307 C145.4928818 212.64208593 146.73873741 213.90336185 147.97428703 215.17458534 C154.12886962 221.97629975 154.12886962 221.97629975 162.17373848 225.63631058 C164.7185719 225.39954932 166.85835529 224.88688934 169.2890625 224.12426758 C170.71263005 223.9610527 172.14020055 223.82678707 173.5703125 223.73754883 C174.25762451 223.6848584 174.94493652 223.63216797 175.65307617 223.57788086 C200.90689177 221.90949528 223.26555494 228.17033888 243.2890625 244.12426758 C244.13339844 244.79071289 244.97773437 245.4571582 245.84765625 246.14379883 C262.31622778 259.99178643 273.63808008 281.84208163 276.2890625 303.12426758 C276.90030788 315.88506151 277.41983196 328.90527819 273.2890625 341.12426758 C273.03672852 341.88578125 272.78439453 342.64729492 272.52441406 343.43188477 C269.41418067 352.76971033 266.1299839 362.05873881 262.2890625 371.12426758 C258.52239804 369.56177719 256.16841394 367.22745121 253.32446289 364.33911133 C252.84423172 363.85435333 252.36400055 363.36959534 251.86921692 362.87014771 C250.83032739 361.82032621 249.79372487 360.76823762 248.75917244 359.71414185 C247.12012981 358.04487271 245.47444409 356.38242391 243.82676697 354.72167969 C239.14454639 349.99975767 234.47514126 345.26523457 229.80883789 340.52758789 C226.95116019 337.62715421 224.08617573 334.73409926 221.21679497 331.84524536 C220.12665375 330.74455063 219.0394367 329.64095164 217.95524788 328.53439331 C216.43796888 326.98585626 214.91163263 325.44679896 213.38305664 323.90942383 C212.51797989 323.03165283 211.65290314 322.15388184 210.76161194 321.24951172 C206.38148596 317.48463772 202.20997488 316.61523693 196.57421875 316.73754883 C192.74217224 317.38604901 189.94049332 319.33328777 187.2890625 322.12426758 C185.53186308 324.97093064 184.99409444 327.16819915 184.9765625 330.49926758 C184.95980469 331.22887695 184.94304687 331.95848633 184.92578125 332.71020508 C185.80459912 338.55009154 189.22823704 342.42991193 193.3112793 346.45532227 C193.80914948 346.95041794 194.30701965 347.44551361 194.81997681 347.95561218 C196.45266472 349.57610096 198.09550223 351.18589065 199.73828125 352.79614258 C200.87822499 353.92540267 202.01735818 355.05548151 203.15571594 356.18634033 C206.14313399 359.15104395 209.13859314 362.10746934 212.13671875 365.06134033 C216.94744452 369.80168625 221.75047379 374.54972564 226.54459572 379.30686188 C228.22213275 380.96765526 229.90593199 382.62191152 231.59025574 384.27581787 C232.61210602 385.28721388 233.63371089 386.29885792 234.6550293 387.31079102 C235.5519902 388.19426208 236.44895111 389.07773315 237.37309265 389.98797607 C239.2890625 392.12426758 239.2890625 392.12426758 239.2890625 394.12426758 C235.28862057 395.65798089 231.28670993 397.18778055 227.28344727 398.71411133 C225.92432202 399.23291807 224.56559 399.75275624 223.20727539 400.27368164 C221.24470099 401.02613396 219.28070017 401.77475489 217.31640625 402.52270508 C215.54898071 403.19825439 215.54898071 403.19825439 213.74584961 403.88745117 C197.62672198 409.65477235 177.9206893 410.30620842 161.2890625 406.12426758 C159.76539063 405.75688477 159.76539063 405.75688477 158.2109375 405.38208008 C144.48197372 401.63480252 132.74993567 394.71079911 122.2890625 385.12426758 C121.36351562 384.2915332 120.43796875 383.45879883 119.484375 382.60083008 C103.37881823 367.38754792 91.79396863 344.48054265 91.12109375 322.10083008 C91.10929051 320.65034266 91.10285531 319.19980245 91.1015625 317.74926758 C91.08931641 317.06477539 91.07707031 316.3802832 91.06445312 315.67504883 C91.05393701 311.72799981 91.25915725 308.25318032 92.15815544 304.37786388 C93.46189844 298.53018734 94.73155962 292.80728458 91.40950394 287.46253395 C88.51293109 283.64750106 85.09089292 280.36524428 81.65283203 277.04541016 C80.37463729 275.74306993 79.10051736 274.43671991 77.83016968 273.12672424 C74.3848081 269.59937623 70.88258942 266.13430469 67.36411524 262.6800673 C63.68046529 259.04845962 60.04401571 255.37006586 56.39987183 251.69889832 C50.27425701 245.54334198 44.11015095 239.42846025 37.92236328 233.33544922 C30.78028572 226.30163786 23.70713769 219.2037516 16.6663543 212.06865579 C9.87609694 205.19119245 3.03588511 198.3655112 -3.82699966 191.56058311 C-6.73965995 188.67032711 -9.63309202 185.76266625 -12.51226425 182.83905983 C-15.90830689 179.39471545 -19.34584111 175.99790873 -22.8196373 172.63205528 C-24.08304781 171.39392769 -25.33161195 170.14042726 -26.56317902 168.87062073 C-32.69277373 162.21132851 -32.69277373 162.21132851 -40.77873087 158.83767295 C-45.59851911 158.86887277 -50.05332685 159.97965965 -54.7109375 161.12426758 C-58.25991326 161.41515881 -61.77628198 161.46146291 -65.3359375 161.43676758 C-66.22490723 161.43112793 -67.11387695 161.42548828 -68.02978516 161.41967773 C-91.44112009 160.99155084 -113.52907432 150.11921988 -130.08203125 133.78442383 C-147.75742607 114.91675954 -156.67453784 90.8458949 -156.0078125 65.15942383 C-155.15356946 47.01376125 -148.57668645 30.75114989 -141.7109375 14.12426758 C-138.7109375 14.12426758 -138.7109375 14.12426758 -136.44766235 16.04696655 C-135.56339569 16.94694366 -134.67912903 17.84692078 -133.76806641 18.77416992 C-133.27822769 19.26838943 -132.78838898 19.76260895 -132.28370667 20.27180481 C-131.21965548 21.34728252 -130.15908471 22.42621214 -129.10158157 23.50812912 C-127.42674247 25.22120823 -125.74275175 26.92478393 -124.05599976 28.62612915 C-119.8669698 32.85531287 -115.694266 37.1004902 -111.52105713 41.34527588 C-107.997479 44.92808581 -104.46780513 48.50467435 -100.9297905 52.07323074 C-99.27234545 53.75009779 -97.62421269 55.43576114 -95.97622681 57.12191772 C-94.95546566 58.15358123 -93.93427827 59.18482323 -92.91259766 60.21557617 C-92.02673981 61.11714447 -91.14088196 62.01871277 -90.22817993 62.94760132 C-85.52444796 67.01493093 -81.18262092 67.57039808 -75.15234375 67.44458008 C-71.51835652 66.96780095 -69.40372305 65.54777457 -66.7109375 63.12426758 C-64.69150249 59.9156879 -64.29955359 57.13754559 -64.1484375 53.37426758 C-64.08527344 52.38942383 -64.02210938 51.40458008 -63.95703125 50.38989258 C-65.99870918 41.54614776 -76.36656979 34.33747787 -82.67578125 28.06176758 C-83.71974816 27.01967018 -84.76349122 25.97734849 -85.80702209 24.93481445 C-88.52879672 22.21682312 -91.25356273 19.50185068 -93.97900391 16.78753662 C-96.76974823 14.0070974 -99.55759621 11.22375729 -102.34570312 8.44067383 C-107.79798108 2.99905916 -113.25342859 -2.43936345 -118.7109375 -7.87573242 C-117.17446533 -10.94867677 -114.7838734 -11.19923416 -111.62109375 -12.40698242 C-111.00254013 -12.64356567 -110.38398651 -12.88014893 -109.74668884 -13.12390137 C-108.43068566 -13.62493684 -107.11329963 -14.12235263 -105.79467773 -14.61645508 C-103.80862558 -15.36251405 -101.8290368 -16.1240179 -99.84960938 -16.88745117 C-92.90508554 -19.53264522 -86.09586362 -21.80527167 -78.7109375 -22.87573242 C-77.78023438 -23.01237305 -76.84953125 -23.14901367 -75.890625 -23.28979492 C-47.93811592 -25.84816016 -21.23162322 -18.88074518 0 0 Z " fill="#C4C4C4" transform="translate(450.7109375,318.875732421875)"/>
<path d="M0 0 C16.41132681 0.86375404 31.23860453 8.04516664 42.44921875 20.0625 C52.40007594 32.49480521 57.40129957 45.38843675 57.375 61.25 C57.37483887 62.16587891 57.37467773 63.08175781 57.37451172 64.02539062 C57.23105059 72.59681573 55.37705142 79.68851958 51.8671875 87.53125 C50.84132513 90.45172305 50.52061272 91.91735045 51 95 C52.92709477 97.42034128 54.80952685 99.48850021 57.00260925 101.64425659 C57.64836625 102.29851911 58.29412325 102.95278162 58.95944864 103.62687027 C61.13328734 105.82305071 63.32463989 108.00087158 65.51635742 110.17919922 C67.07576219 111.74701321 68.63410736 113.31588171 70.19146729 114.88572693 C74.42986877 119.1512484 78.6840798 123.40066782 82.94206786 127.64662695 C86.4908932 131.1883366 90.03189695 134.73781321 93.5728882 138.28735268 C102.40095739 147.13653823 111.24411166 155.97049766 120.09442887 164.79741706 C127.30640342 171.99113566 134.50366461 179.19931139 141.69067383 186.41796875 C150.03329883 194.79732849 158.38602403 203.16645896 166.75331765 211.5212003 C171.18378978 215.9451699 175.60985669 220.37332897 180.02519798 224.81240463 C184.17566897 228.98404623 188.34035627 233.14094206 192.51663208 237.28674507 C194.05009294 238.81385081 195.57841927 240.34613172 197.10128212 241.88380623 C199.17482948 243.97588506 201.26582239 246.04875889 203.36247253 248.11764526 C203.96656911 248.73580829 204.57066568 249.35397131 205.19306821 249.99086654 C207.04896791 251.86576277 207.04896791 251.86576277 210 254 C212.73219461 254.08724543 212.73219461 254.08724543 215 253 C215.86238281 252.70222656 216.72476562 252.40445313 217.61328125 252.09765625 C218.50402344 251.75605469 219.39476562 251.41445313 220.3125 251.0625 C233.29047479 246.32915376 246.52483034 245.11465942 260 249 C260.8559375 249.23332031 261.711875 249.46664062 262.59375 249.70703125 C278.18362742 254.61246682 290.24064554 265.88536474 298 280 C301.90007312 288.32283646 304.15232621 294.86042739 304 304 C297.67683773 298.75312067 297.67683773 298.75312067 295.09375 295.87890625 C290.54994434 290.83702959 285.95631337 287.56530025 279.9375 284.5625 C279.27693604 284.23266113 278.61637207 283.90282227 277.93579102 283.56298828 C266.05469322 277.93223389 254.54685292 277.49100964 242.10546875 281.7421875 C229.89405558 286.68819384 221.68457628 294.14173981 216.1875 306.13671875 C211.51213899 317.4098754 211.31068557 329.80613668 215.76953125 341.25 C216.17558594 342.1575 216.58164062 343.065 217 344 C217.35449219 344.804375 217.70898438 345.60875 218.07421875 346.4375 C222.47819103 354.88423547 229.8850269 361.19035106 236.71826172 367.66821289 C238 369 238 369 238 370 C225.83083823 370.93608937 213.80353509 365.28720469 204.3359375 357.9296875 C190.81998932 346.21042126 182.05588606 331.31479816 180.7265625 313.29296875 C180.34279893 302.12708176 181.74909357 290.73015151 187.2265625 280.76953125 C188.25477182 278.41711296 187.8208112 277.4016255 187 275 C185.03250015 272.73291059 183.05204012 270.62596514 180.92855835 268.51396179 C180.28744161 267.86463725 179.64632488 267.21531272 178.98578036 266.54631168 C176.82889406 264.36569292 174.6613557 262.19598529 172.49365234 260.02612305 C170.94764145 258.46786577 169.40223544 256.90900817 167.85739136 255.34959412 C163.65394896 251.11104539 159.44059814 246.88248329 155.22433043 242.65669608 C152.59239366 240.01819102 149.96235425 237.3778095 147.33293533 234.73679543 C138.63842115 226.00458228 129.93673236 217.27959084 121.22705023 208.56250777 C120.7575094 208.09256136 120.28796856 207.62261495 119.80419922 207.13842773 C119.33408376 206.6679103 118.8639683 206.19739286 118.37960692 205.71261732 C110.75819142 198.08370802 103.15545384 190.43647364 95.5606796 182.7810507 C87.76386724 174.92247762 79.95182841 167.07927776 72.12515604 159.25043708 C67.73062674 154.85406312 63.34279717 150.45146016 58.97050095 146.03296471 C54.85938741 141.87933919 50.72973824 137.74509957 46.58488846 133.62514687 C45.06500338 132.10785705 43.55196691 130.58367194 42.04629517 129.05227661 C39.99324552 126.96626908 37.91719358 124.90629137 35.83334351 122.85112 C35.23964568 122.2361658 34.64594786 121.62121161 34.0342592 120.98762244 C32.40744229 119.41211383 30.97341297 118.11118332 29 117 C24.43571139 117.07390295 20.65100643 118.37475758 16.35595703 119.8671875 C-0.44448731 125.58375446 -17.09483602 124.44064647 -33.0625 116.875 C-46.64950866 110.0235259 -55.91672278 98.73210373 -62 85 C-62.309375 84.33226562 -62.61875 83.66453125 -62.9375 82.9765625 C-65.27673908 77.46585505 -65.68348327 71.93741727 -66 66 C-61.98872361 69.32850594 -58.28023479 72.72187498 -54.6875 76.5 C-44.97112798 86.24914224 -33.08079566 91.1182754 -19.3125 91.4375 C-7.02424678 91.04679656 4.15893155 86.76141224 13.3125 78.375 C23.23756784 67.77739163 25.68020004 54.99427274 25.375 41.0703125 C24.56291729 25.46092265 14.84754613 15.55562164 4.26757812 5.25195312 C2.82926989 3.85065399 1.41247075 2.42733886 0 1 C0 0.67 0 0.34 0 0 Z " fill="#252525" transform="translate(392,326)"/>
<path d="M0 0 C1.12203297 0.95640926 2.24331233 1.91370268 3.36427307 2.87136841 C4.30101285 3.67086505 4.30101285 3.67086505 5.25667667 4.48651314 C7.23901519 6.20750388 9.1169148 8.00290519 10.96484375 9.8671875 C11.61904297 10.52460937 12.27324219 11.18203125 12.94726562 11.859375 C13.60404297 12.52453125 14.26082031 13.1896875 14.9375 13.875 C15.62134766 14.56335938 16.30519531 15.25171875 17.00976562 15.9609375 C18.67551464 17.63833511 20.3388622 19.31803791 22 21 C20.35606624 25.21592931 17.23644614 28.03022614 14.08154297 31.14550781 C13.17402283 32.05346603 13.17402283 32.05346603 12.24816895 32.97976685 C10.25088001 34.9756645 8.24660442 36.96438799 6.2421875 38.953125 C4.85455498 40.33702668 3.4673639 41.72137112 2.08059692 43.10614014 C-1.567926 46.7470322 -5.22241552 50.38187778 -8.87817383 54.01550293 C-12.60859789 57.72545688 -16.33335643 61.44108927 -20.05859375 65.15625 C-27.36685747 72.44307344 -34.68143616 79.72352265 -42 87 C-41.04825315 88.11314821 -40.09610873 89.2259565 -39.14379883 90.33862305 C-38.61361649 90.95835495 -38.08343414 91.57808685 -37.53718567 92.21659851 C-34.95237365 95.21542793 -32.29091283 98.14472314 -29.63671875 101.08203125 C-26.99070236 104.18273304 -26.79175567 106.23341304 -26.6875 110.25 C-26.63142578 111.64992188 -26.63142578 111.64992188 -26.57421875 113.078125 C-27.5161931 119.54231596 -32.79905202 124.09284601 -37.24975586 128.52441406 C-37.86653702 129.14630615 -38.48331818 129.76819824 -39.11878967 130.40893555 C-41.14569197 132.44966444 -43.179863 134.48295395 -45.21484375 136.515625 C-46.63226429 137.93693495 -48.04946166 139.35846749 -49.46644592 140.7802124 C-52.43118484 143.75239763 -55.3997496 146.72069753 -58.37084961 149.68652344 C-62.17687442 153.48674157 -65.9713846 157.29823178 -69.76290035 161.11291885 C-72.68389808 164.04864507 -75.61178975 166.97741872 -78.54171944 169.90422821 C-79.94388471 171.30690666 -81.34368962 172.71194876 -82.7410717 174.1193924 C-84.69390929 176.08456575 -86.65604969 178.03996065 -88.62084961 179.99316406 C-89.19503632 180.57499451 -89.76922302 181.15682495 -90.36080933 181.75628662 C-94.57407097 185.91477952 -98.30703147 188.22132958 -104.25 188.5625 C-113.76875126 188.18250308 -121.39408189 177.89043002 -127.671875 171.55859375 C-128.55731995 170.67269058 -129.44276489 169.78678741 -130.3550415 168.8740387 C-132.68461131 166.54070356 -135.00953406 164.20286268 -137.33258057 161.86303711 C-139.69190396 159.49020168 -142.05959032 157.12575211 -144.42578125 154.75976562 C-146.23745245 152.94318022 -148.04866626 151.12613851 -149.859375 149.30859375 C-150.70216003 148.46469589 -151.54494507 147.62079803 -152.41326904 146.75132751 C-165.03660168 134.02623526 -165.03660168 134.02623526 -165.5 125.8125 C-165.5721875 124.91144531 -165.644375 124.01039063 -165.71875 123.08203125 C-163.51668231 113.63946926 -150.85135958 104.68717747 -144.11328125 97.9453125 C-142.76516129 96.59397448 -141.41711463 95.24256333 -140.06913757 93.89108276 C-137.25774006 91.07372758 -134.44431405 88.25841618 -131.62963867 85.44433594 C-128.02325175 81.83805119 -124.4238263 78.22490221 -120.82607746 74.61000252 C-118.05084635 71.82366585 -115.27109534 69.04187285 -112.49004173 66.26134872 C-111.16036537 64.93049282 -109.83230909 63.59801621 -108.50591469 62.26388931 C-106.65619271 60.40438412 -104.80025983 58.55130468 -102.94262695 56.69970703 C-102.39761032 56.14907089 -101.85259369 55.59843475 -101.2910614 55.03111267 C-97.39977678 51.17191707 -94.35816278 48.74243335 -88.8125 48.5 C-79.74186555 48.75237444 -73.56724177 56.11495981 -67.65234375 62.2421875 C-67.10707031 62.82226562 -66.56179688 63.40234375 -66 64 C-61.78407069 62.35606624 -58.96977386 59.23644614 -55.85449219 56.08154297 C-55.24918671 55.47652954 -54.64388123 54.87151611 -54.02023315 54.24816895 C-52.0243355 52.25088001 -50.03561201 50.24660442 -48.046875 48.2421875 C-46.66297332 46.85455498 -45.27862888 45.4673639 -43.89385986 44.08059692 C-40.2529678 40.432074 -36.61812222 36.77758448 -32.98449707 33.12182617 C-29.27454312 29.39140211 -25.55891073 25.66664357 -21.84375 21.94140625 C-14.55692656 14.63314253 -7.27647735 7.31856384 0 0 Z " fill="#C4C4C4" transform="translate(445,555)"/>
<path d="M0 0 C0.85980469 0.43570312 1.71960938 0.87140625 2.60546875 1.3203125 C14.88789289 8.12117065 21.60149032 17.80447097 26 31 C27.56560058 46.86409195 25.61135488 59.57702587 15.4201355 72.17071152 C11.05782556 77.27052237 6.29356231 81.96700079 1.53515625 86.69189453 C0.4005555 87.82592979 -0.73360238 88.9604083 -1.86735535 90.09529114 C-4.91810982 93.14661474 -7.97495003 96.19177249 -11.03299713 99.23578501 C-14.23833935 102.42854592 -17.43794321 105.62704744 -20.63818359 108.82492065 C-26.68649483 114.86703873 -32.73988184 120.90404447 -38.79515076 126.93918884 C-45.69398456 133.81559595 -52.58707728 140.69774597 -59.47971535 147.58036256 C-73.64680566 161.72659995 -87.82101986 175.86568063 -102 190 C-103.12203297 189.04359074 -104.24331233 188.08629732 -105.36427307 187.12863159 C-105.98876626 186.59563383 -106.61325945 186.06263607 -107.25667667 185.51348686 C-109.23901519 183.79249612 -111.1169148 181.99709481 -112.96484375 180.1328125 C-113.61904297 179.47539062 -114.27324219 178.81796875 -114.94726562 178.140625 C-115.60404297 177.47546875 -116.26082031 176.8103125 -116.9375 176.125 C-117.96327148 175.09246094 -117.96327148 175.09246094 -119.00976562 174.0390625 C-120.67551464 172.36166489 -122.3388622 170.68196209 -124 169 C-122.45292795 165.31339503 -120.21843775 162.97417682 -117.40037537 160.16659546 C-116.92976356 159.69498037 -116.45915176 159.22336528 -115.97427899 158.73745883 C-114.39828515 157.1605134 -112.81525988 155.59082308 -111.23217773 154.02099609 C-110.10007809 152.89109793 -108.96842603 151.76075115 -107.83718872 150.62998962 C-105.40155376 148.19728723 -102.96279645 145.76777437 -100.52157402 143.34067917 C-96.66412915 139.50548961 -92.81377501 135.66323429 -88.96437073 131.81997681 C-82.87786545 125.74485187 -76.78670491 119.67441919 -70.69350535 113.60600913 C-59.77405931 102.73090681 -48.86020965 91.85019497 -37.95153767 80.96428549 C-34.12087362 77.14204582 -30.28741907 73.32263299 -26.45172298 69.50544333 C-24.07053718 67.1348746 -21.69135994 64.76229767 -19.31268692 62.38920784 C-18.20616443 61.28616579 -17.09877076 60.1839969 -15.99046135 59.08275032 C-14.48223067 57.58392294 -12.97706916 56.08207985 -11.47264099 54.57943726 C-10.62811088 53.73842657 -9.78358076 52.89741589 -8.91345882 52.03092003 C-5.82111681 48.74874888 -5.8155566 46.61803339 -5.75 42.1875 C-5.72421875 41.14980469 -5.6984375 40.11210937 -5.671875 39.04296875 C-6.05213884 35.51647435 -6.8233366 33.78707553 -9 31 C-12.55727135 28.28571228 -15.36672315 27.50318754 -19.8125 27.375 C-20.78832031 27.32085937 -21.76414062 27.26671875 -22.76953125 27.2109375 C-31.60506464 29.36907262 -38.79693626 39.66040073 -45.09765625 45.98413086 C-46.19220335 47.07896058 -47.28697177 48.17356907 -48.38194275 49.26797485 C-51.33196452 52.21771154 -54.27890857 55.17050532 -57.22528076 58.12388682 C-60.31309677 61.21798477 -63.40377442 64.30922164 -66.49414062 67.40077209 C-72.33597817 73.24570874 -78.17526348 79.09318819 -84.01362038 84.94160134 C-90.66465441 91.60384076 -97.31855272 98.26321639 -103.97268486 104.92236125 C-117.65163041 118.611739 -131.32700179 132.30468215 -145 146 C-148.52344644 144.3413812 -150.79901878 142.43342692 -153.546875 139.6484375 C-154.39121094 138.79765625 -155.23554687 137.946875 -156.10546875 137.0703125 C-156.97816406 136.18085938 -157.85085938 135.29140625 -158.75 134.375 C-160.08224609 133.02921875 -160.08224609 133.02921875 -161.44140625 131.65625 C-163.63216969 129.44192996 -165.81812763 127.22307565 -168 125 C-162.76002707 118.66114682 -157.02591709 112.85685608 -151.22802734 107.03515625 C-150.14300574 105.94221841 -149.05816157 104.84910439 -147.97348022 103.75582886 C-144.43135821 100.18767276 -140.88395156 96.62479594 -137.3359375 93.0625 C-136.10849084 91.82968688 -134.88104972 90.59686824 -133.65361404 89.36404419 C-128.54460608 84.23343902 -123.43416725 79.10426617 -118.31999779 73.97880554 C-111.02095982 66.66353839 -103.73053516 59.33992406 -96.45192373 52.00433064 C-91.3156826 46.82927006 -86.16978032 41.66394149 -81.0167309 36.5056181 C-77.94733128 33.43258288 -74.88217187 30.35559252 -71.82731247 27.26809692 C-68.95068535 24.3611754 -66.06214948 21.46661714 -63.16449356 18.58066177 C-62.11052272 17.52690985 -61.0607262 16.46896112 -60.01576233 15.4062767 C-44.01452141 -0.85116039 -22.05340447 -11.32567183 0 0 Z " fill="#C4C4C4" transform="translate(701,299)"/>
<path d="M0 0 C2.99638055 1.29231373 4.84860249 3.42306786 7.12478638 5.73895264 C7.60743958 6.22585068 8.09009277 6.71274872 8.58737183 7.21440125 C10.12266988 8.76645089 11.64719063 10.32861775 13.17166138 11.89129639 C14.21263357 12.94731995 15.25429278 14.00266677 16.29666138 15.05731201 C18.8463377 17.64001054 21.38645334 20.23188521 23.92166138 22.82879639 C19.55136772 28.05828383 14.95254334 32.93169594 10.11697388 37.73114014 C9.39299408 38.45370499 8.66901428 39.17626984 7.9230957 39.92073059 C5.63330873 42.20496561 3.34005144 44.48567951 1.04666138 46.76629639 C-0.51607023 48.32400678 -2.07857252 49.88194726 -3.64083862 51.44012451 C-7.45069172 55.23901241 -11.26339242 59.03502352 -15.07833862 62.82879639 C-18.79547598 61.09119492 -21.16574875 58.9720276 -24.06271362 56.03973389 C-24.52317078 55.57644684 -24.98362793 55.11315979 -25.45803833 54.63583374 C-26.9195894 53.1631374 -28.3740103 51.68362236 -29.82833862 50.20379639 C-30.82136473 49.20073317 -31.81484951 48.19812382 -32.80880737 47.19598389 C-35.23731803 44.74548803 -37.65948538 42.28882969 -40.07833862 39.82879639 C-38.67800567 36.67481445 -37.02406967 34.50935593 -34.6100769 32.05413818 C-33.90239166 31.33046555 -33.19470642 30.60679291 -32.46557617 29.8611908 C-31.70099091 29.09124283 -30.93640564 28.32129486 -30.14865112 27.52801514 C-29.3619101 26.73224564 -28.57516907 25.93647614 -27.7645874 25.11659241 C-26.10124378 23.43875349 -24.43508441 21.76370199 -22.7663269 20.09124756 C-20.20772755 17.5207058 -17.66836851 14.93210857 -15.12911987 12.34246826 C-13.51178182 10.71567157 -11.89332961 9.08998165 -10.27365112 7.46551514 C-9.13284592 6.29541145 -9.13284592 6.29541145 -7.96899414 5.10166931 C-7.25500458 4.39375748 -6.54101501 3.68584564 -5.8053894 2.95648193 C-5.18076813 2.32679001 -4.55614685 1.69709808 -3.91259766 1.04832458 C-2.07833862 -0.17120361 -2.07833862 -0.17120361 0 0 Z " fill="#262626" transform="translate(357.0783386230469,642.1712036132813)"/>
<path d="M0 0 C0.66 0.33 1.32 0.66 2 1 C-4.27 7.27 -10.54 13.54 -17 20 C-17.66 19.67 -18.32 19.34 -19 19 C-12.98348207 12.26459665 -7.02537494 5.71692402 0 0 Z " fill="#4C4C4C" transform="translate(153,131)"/>
</svg>
